<svg width="20" height="25" viewBox="0 0 20 25" fill="none" xmlns="http://www.w3.org/2000/svg">
<path d="M7.71603 1.12424C8.23537 0.774696 8.8465 0.563594 9.46986 0.517702C10.2156 0.476399 10.9927 0.484813 11.6864 0.796112C12.836 1.27109 13.6781 2.37709 13.8632 3.60316C14.9723 3.60546 16.0821 3.60163 17.1912 3.60469C17.9858 3.59398 18.7622 4.04984 19.14 4.74893C19.4399 5.33787 19.4926 6.01172 19.6716 6.6412C19.7359 6.97774 19.9439 7.40606 19.6418 7.6883C19.3144 7.95294 18.8532 7.79385 18.4677 7.83592C18.0792 12.5544 17.6883 17.272 17.3013 21.9912C17.2768 22.4211 17.2118 22.8609 16.9961 23.2418C16.5969 24.0028 15.7616 24.5008 14.9027 24.4977C11.662 24.5023 8.42123 24.4985 5.18051 24.4992C4.42788 24.5184 3.67755 24.168 3.22093 23.5684C2.91728 23.1814 2.75207 22.6987 2.723 22.21C2.3291 17.4181 1.9329 12.627 1.53823 7.83592C1.2254 7.82827 0.910275 7.85886 0.599741 7.81526C0.313682 7.7556 0.133939 7.43207 0.218074 7.15442C0.364163 6.51194 0.514841 5.87022 0.671638 5.23079C0.907981 4.31525 1.78987 3.61999 2.736 3.60699C3.87183 3.59781 5.00765 3.60699 6.14347 3.60316C6.29874 2.60654 6.87315 1.68182 7.71603 1.12424ZM8.7027 1.79579C7.95696 2.1178 7.40396 2.81382 7.22575 3.6024C9.07749 3.60469 10.9292 3.60469 12.7817 3.6024C12.5568 2.55759 11.6398 1.70401 10.5705 1.59463C9.94561 1.55562 9.28553 1.52732 8.7027 1.79579ZM1.72944 5.44342C1.59789 5.8771 1.51834 6.32531 1.40667 6.76511C7.13779 6.76511 12.8689 6.76511 18.6008 6.76434C18.4884 6.32302 18.4081 5.87327 18.2757 5.43807C18.1182 4.95926 17.6172 4.64643 17.12 4.67473C12.3771 4.67397 7.63419 4.67474 2.89127 4.67397C2.39029 4.64491 1.88471 4.96003 1.72944 5.44342ZM2.61363 7.83592C3.01059 12.6301 3.4022 17.425 3.80222 22.2192C3.84123 22.8785 4.44165 23.4353 5.10249 23.4269C8.36922 23.4307 11.636 23.4307 14.9027 23.4269C15.5651 23.4353 16.167 22.8792 16.2052 22.2176C16.6045 17.4242 16.9969 12.6301 17.3938 7.83592C12.4666 7.83592 7.54011 7.83592 2.61363 7.83592Z" fill="white"/>
<path d="M5.42667 10.5325C5.70355 10.427 6.05156 10.6059 6.11275 10.8989C6.15864 11.123 6.15711 11.3532 6.1747 11.5804C6.36363 14.4134 6.55102 17.2465 6.74147 20.0795C6.76671 20.2906 6.7147 20.5285 6.52807 20.6539C6.27108 20.8566 5.84811 20.7419 5.72573 20.439C5.6546 20.2233 5.66531 19.9923 5.64618 19.769C5.4565 16.8862 5.26069 14.0042 5.07177 11.1222C5.03582 10.8721 5.18344 10.6105 5.42667 10.5325Z" fill="white"/>
<path d="M9.80075 10.5489C10.083 10.4227 10.4516 10.6001 10.5182 10.9046C10.5557 11.1294 10.5373 11.3597 10.5404 11.5868C10.5381 14.4436 10.5411 17.2996 10.5388 20.1564C10.5725 20.4638 10.3163 20.7667 10.0011 20.756C9.68984 20.7629 9.43743 20.4654 9.46956 20.1609C9.46803 17.1474 9.46879 14.1338 9.46879 11.1203C9.45044 10.8847 9.57282 10.6353 9.80075 10.5489Z" fill="white"/>
<path d="M14.2271 10.5316C14.5919 10.3863 15.0057 10.7366 14.9346 11.1206C14.7327 14.1609 14.533 17.202 14.325 20.2423C14.3212 20.5613 13.9946 20.8168 13.6848 20.7449C13.4171 20.6959 13.2274 20.4244 13.2618 20.1567C13.4569 17.1423 13.6649 14.1288 13.8615 11.1145C13.8584 10.8697 13.9801 10.6097 14.2271 10.5316Z" fill="white"/>
</svg>
