<svg width="17" height="14" viewBox="0 0 17 14" fill="none" xmlns="http://www.w3.org/2000/svg">
<path fill-rule="evenodd" clip-rule="evenodd" d="M14.3424 1.55535L16.8242 1.55535L16.8242 0.5L13.6637 0.5L12.5597 2.92177L0.799732 2.92177L2.59554 10.19L11.2535 10.19L13.3916 3.64137L14.3424 1.55535ZM12.1718 3.97712L10.4879 9.13469L3.42188 9.13469L2.14757 3.97712L12.1718 3.97712Z" fill="#818181"/>
<path fill-rule="evenodd" clip-rule="evenodd" d="M4.59108 11.102C4.19368 11.102 3.87152 11.4241 3.87152 11.8215C3.87152 12.2189 4.19368 12.5411 4.59108 12.5411C4.98848 12.5411 5.31064 12.2189 5.31064 11.8215C5.31064 11.4241 4.98848 11.102 4.59108 11.102ZM2.91211 11.8215C2.91211 10.8943 3.66381 10.1426 4.59108 10.1426C5.51835 10.1426 6.27005 10.8943 6.27005 11.8215C6.27005 12.7488 5.51835 13.5005 4.59108 13.5005C3.66381 13.5005 2.91211 12.7488 2.91211 11.8215Z" fill="#818181"/>
<path fill-rule="evenodd" clip-rule="evenodd" d="M9.38795 11.102C8.99055 11.102 8.66839 11.4241 8.66839 11.8215C8.66839 12.2189 8.99055 12.5411 9.38795 12.5411C9.78535 12.5411 10.1075 12.2189 10.1075 11.8215C10.1075 11.4241 9.78535 11.102 9.38795 11.102ZM7.70898 11.8215C7.70898 10.8943 8.46068 10.1426 9.38795 10.1426C10.3152 10.1426 11.0669 10.8943 11.0669 11.8215C11.0669 12.7488 10.3152 13.5005 9.38795 13.5005C8.46068 13.5005 7.70898 12.7488 7.70898 11.8215Z" fill="#818181"/>
</svg>
