<svg width="353" height="204" viewBox="0 0 353 204" fill="none" xmlns="http://www.w3.org/2000/svg">
<path d="M0 130.82V1.75277H28.5261V130.82H0Z" fill="url(#paint0_linear_639_8343)"/>
<path d="M47.7742 130.82V1.75277H83.3122C92.0241 1.75277 99.5673 2.70882 105.942 4.62094C112.316 6.53305 117.257 9.98548 120.763 14.9782C124.375 19.8647 126.181 26.8227 126.181 35.8521C126.181 41.1636 125.756 45.8907 124.906 50.0336C124.056 54.1766 122.463 57.7883 120.125 60.869C117.894 63.8434 114.654 66.3397 110.404 68.3581L128.093 130.82H98.6111L84.4278 72.979H76.3002V130.82H47.7742ZM76.3002 56.5667H84.2684C88.3056 56.5667 91.4398 55.8762 93.6708 54.4952C95.9019 53.008 97.4424 50.9366 98.2924 48.2809C99.2486 45.5189 99.7266 42.2258 99.7266 38.4016C99.7266 32.8777 98.7173 28.5755 96.6987 25.4949C94.6801 22.4142 90.9617 20.8739 85.5433 20.8739H76.3002V56.5667Z" fill="url(#paint1_linear_639_8343)"/>
<path d="M143.33 130.82V1.75277H176.956C182.48 1.75277 187.686 2.17768 192.573 3.02751C197.567 3.87734 201.976 5.52389 205.8 7.96714C209.625 10.3042 212.6 13.7035 214.725 18.1651C216.956 22.5205 218.071 28.3099 218.071 35.5334C218.071 40.7386 217.275 45.1471 215.681 48.7589C214.194 52.2644 212.016 55.0795 209.147 57.2041C206.385 59.3286 203.038 60.7627 199.107 61.5063C204.101 62.1437 208.297 63.7902 211.697 66.446C215.097 68.9954 217.646 72.4479 219.346 76.8032C221.152 81.1586 222.056 86.4169 222.056 92.5782C222.056 99.2706 221.152 105.06 219.346 109.947C217.646 114.727 215.15 118.657 211.856 121.738C208.563 124.819 204.472 127.102 199.585 128.59C194.804 130.077 189.28 130.82 183.011 130.82H143.33ZM171.856 110.903H177.912C184.18 110.903 188.483 109.309 190.82 106.122C193.264 102.935 194.486 98.2614 194.486 92.1002C194.486 87.2136 193.954 83.3363 192.892 80.4681C191.83 77.6 190.077 75.5285 187.633 74.2538C185.189 72.8728 181.896 72.1823 177.752 72.1823H171.856V110.903ZM171.856 53.3798H177.434C181.79 53.3798 185.083 52.7425 187.314 51.4677C189.545 50.0868 191.033 48.1215 191.776 45.572C192.626 43.0226 193.051 39.9419 193.051 36.3302C193.051 32.9309 192.414 30.1158 191.139 27.885C189.97 25.548 188.164 23.7952 185.721 22.6267C183.383 21.4582 180.409 20.8739 176.796 20.8739H171.856V53.3798Z" fill="url(#paint2_linear_639_8343)"/>
<path d="M237.178 130.82V1.75277H265.704V130.82H237.178Z" fill="url(#paint3_linear_639_8343)"/>
<path d="M319.215 132.733C311.141 132.733 304.394 131.298 298.976 128.43C293.557 125.562 289.467 121.154 286.705 115.205C283.942 109.15 282.402 101.342 282.083 91.7815L306.466 88.1166C306.572 93.6405 307.05 98.1021 307.9 101.501C308.856 104.901 310.131 107.344 311.725 108.831C313.425 110.318 315.443 111.062 317.781 111.062C320.755 111.062 322.668 110.053 323.518 108.034C324.474 106.016 324.952 103.892 324.952 101.661C324.952 96.3493 323.677 91.8877 321.127 88.2759C318.577 84.5579 315.125 80.8399 310.769 77.1219L299.613 67.402C294.726 63.2591 290.583 58.585 287.183 53.3798C283.889 48.0684 282.243 41.5354 282.243 33.7807C282.243 22.8391 285.483 14.5002 291.964 8.76386C298.445 2.92129 307.263 0 318.418 0C325.324 0 330.848 1.16851 334.992 3.50554C339.242 5.84257 342.429 8.9232 344.554 12.7474C346.785 16.4654 348.272 20.449 349.016 24.6981C349.866 28.8411 350.344 32.8246 350.45 36.6489L325.908 39.6764C325.802 35.8521 325.536 32.5591 325.111 29.7971C324.793 26.9289 324.049 24.7513 322.88 23.2641C321.712 21.6706 319.905 20.8739 317.462 20.8739C314.806 20.8739 312.84 21.9893 311.565 24.2201C310.397 26.4509 309.812 28.6817 309.812 30.9125C309.812 35.6928 310.928 39.6232 313.159 42.7039C315.496 45.6783 318.524 48.812 322.243 52.1051L332.92 61.5063C338.551 66.2866 343.279 71.7043 347.104 77.7593C351.034 83.8143 353 91.3034 353 100.227C353 106.282 351.619 111.806 348.857 116.798C346.094 121.685 342.163 125.562 337.064 128.43C332.07 131.298 326.121 132.733 319.215 132.733Z" fill="url(#paint4_linear_639_8343)"/>
<path d="M0 202.866L1.03339 143.196H13.9507L21.3321 180.839L29.2301 143.196H41.7046L42.738 202.866H33.8804L32.9208 162.423L25.318 202.866H17.7152L9.74337 162.128L8.93143 202.866H0Z" fill="url(#paint5_linear_639_8343)"/>
<path d="M51.6925 202.866V143.196H63.7979V202.866H51.6925Z" fill="url(#paint6_linear_639_8343)"/>
<path d="M72.9536 202.866V143.196H81.4422L94.7286 174.283V143.196H104.767V202.866H96.6477L83.3613 169.863V202.866H72.9536Z" fill="url(#paint7_linear_639_8343)"/>
<path d="M113.973 202.866V143.196H126.078V202.866H113.973Z" fill="url(#paint8_linear_639_8343)"/>
<path d="M132.281 202.866L143.87 143.196H157.378L168.893 202.866H157.599L155.459 189.753H146.01L143.722 202.866H132.281ZM147.118 182.313H154.278L150.661 158.224L147.118 182.313Z" fill="url(#paint9_linear_639_8343)"/>
<path d="M177.318 202.866V152.257H168.091V143.196H198.65V152.257H189.571V202.866H177.318Z" fill="url(#paint10_linear_639_8343)"/>
<path d="M220.903 203.676C216.376 203.676 212.857 202.915 210.348 201.392C207.838 199.821 206.066 197.586 205.033 194.689C204.049 191.742 203.557 188.182 203.557 184.007V143.196H215.588V185.701C215.588 187.175 215.687 188.624 215.884 190.048C216.13 191.472 216.622 192.626 217.36 193.51C218.147 194.394 219.328 194.836 220.903 194.836C222.527 194.836 223.708 194.394 224.446 193.51C225.233 192.626 225.725 191.472 225.922 190.048C226.119 188.624 226.217 187.175 226.217 185.701V143.196H238.249V184.007C238.249 188.182 237.732 191.742 236.699 194.689C235.715 197.586 233.968 199.821 231.458 201.392C228.948 202.915 225.43 203.676 220.903 203.676Z" fill="url(#paint11_linear_639_8343)"/>
<path d="M246.747 202.866V143.196H262.248C266.283 143.196 269.727 143.662 272.581 144.595C275.485 145.479 277.699 147.075 279.225 149.384C280.799 151.692 281.587 154.884 281.587 158.96C281.587 161.416 281.365 163.601 280.922 165.517C280.529 167.383 279.791 169.028 278.708 170.452C277.675 171.828 276.198 172.933 274.279 173.767L282.546 202.866H270.072L263.207 175.83H258.926V202.866H246.747ZM258.926 168.611H262.469C264.437 168.611 265.987 168.292 267.119 167.653C268.251 167.015 269.038 166.057 269.481 164.78C269.973 163.454 270.219 161.833 270.219 159.918C270.219 157.168 269.703 155.081 268.669 153.656C267.685 152.183 265.815 151.446 263.06 151.446H258.926V168.611Z" fill="url(#paint12_linear_639_8343)"/>
<path d="M289.781 202.866V143.196H315.837V151.594H301.96V167.432H312.663V175.904H301.96V194.615H315.984V202.866H289.781Z" fill="url(#paint13_linear_639_8343)"/>
<path d="M337.647 203.676C333.956 203.676 330.881 203.013 328.42 201.687C325.96 200.312 324.09 198.274 322.81 195.573C321.58 192.823 320.867 189.336 320.67 185.112L331.151 183.344C331.25 185.8 331.496 187.862 331.889 189.532C332.332 191.153 332.972 192.381 333.809 193.215C334.694 194.001 335.777 194.394 337.056 194.394C338.631 194.394 339.689 193.903 340.23 192.921C340.821 191.939 341.116 190.809 341.116 189.532C341.116 187.027 340.501 184.94 339.271 183.27C338.09 181.552 336.515 179.833 334.547 178.114L328.346 172.736C326.132 170.87 324.311 168.758 322.884 166.401C321.506 164.043 320.817 161.146 320.817 157.708C320.817 152.797 322.244 149.04 325.099 146.437C328.002 143.785 331.963 142.459 336.982 142.459C339.984 142.459 342.445 142.95 344.364 143.932C346.283 144.915 347.759 146.241 348.793 147.91C349.875 149.531 350.613 151.324 351.007 153.288C351.45 155.203 351.721 157.119 351.819 159.034L341.411 160.581C341.313 158.764 341.141 157.168 340.895 155.793C340.698 154.418 340.255 153.337 339.566 152.551C338.926 151.766 337.942 151.373 336.613 151.373C335.186 151.373 334.128 151.913 333.439 152.993C332.751 154.025 332.406 155.179 332.406 156.456C332.406 158.567 332.874 160.311 333.809 161.686C334.793 163.012 336.121 164.412 337.794 165.885L343.847 171.189C346.357 173.35 348.497 175.83 350.269 178.629C352.09 181.38 353 184.793 353 188.869C353 191.668 352.36 194.198 351.081 196.457C349.801 198.716 348.005 200.484 345.692 201.761C343.429 203.038 340.747 203.676 337.647 203.676Z" fill="url(#paint14_linear_639_8343)"/>
<defs>
<linearGradient id="paint0_linear_639_8343" x1="173.921" y1="-59.644" x2="174.543" y2="130.82" gradientUnits="userSpaceOnUse">
<stop stop-color="#3D3D3D"/>
<stop offset="1" stop-color="#3D3D3D" stop-opacity="0"/>
</linearGradient>
<linearGradient id="paint1_linear_639_8343" x1="173.921" y1="-59.644" x2="174.543" y2="130.82" gradientUnits="userSpaceOnUse">
<stop stop-color="#3D3D3D"/>
<stop offset="1" stop-color="#3D3D3D" stop-opacity="0"/>
</linearGradient>
<linearGradient id="paint2_linear_639_8343" x1="173.921" y1="-59.644" x2="174.543" y2="130.82" gradientUnits="userSpaceOnUse">
<stop stop-color="#3D3D3D"/>
<stop offset="1" stop-color="#3D3D3D" stop-opacity="0"/>
</linearGradient>
<linearGradient id="paint3_linear_639_8343" x1="173.921" y1="-59.644" x2="174.543" y2="130.82" gradientUnits="userSpaceOnUse">
<stop stop-color="#3D3D3D"/>
<stop offset="1" stop-color="#3D3D3D" stop-opacity="0"/>
</linearGradient>
<linearGradient id="paint4_linear_639_8343" x1="173.921" y1="-59.644" x2="174.543" y2="130.82" gradientUnits="userSpaceOnUse">
<stop stop-color="#3D3D3D"/>
<stop offset="1" stop-color="#3D3D3D" stop-opacity="0"/>
</linearGradient>
<linearGradient id="paint5_linear_639_8343" x1="176.216" y1="80.2795" x2="176.499" y2="227.244" gradientUnits="userSpaceOnUse">
<stop stop-color="#3D3D3D"/>
<stop offset="1" stop-color="#3D3D3D" stop-opacity="0"/>
</linearGradient>
<linearGradient id="paint6_linear_639_8343" x1="176.216" y1="80.2795" x2="176.499" y2="227.244" gradientUnits="userSpaceOnUse">
<stop stop-color="#3D3D3D"/>
<stop offset="1" stop-color="#3D3D3D" stop-opacity="0"/>
</linearGradient>
<linearGradient id="paint7_linear_639_8343" x1="176.216" y1="80.2795" x2="176.499" y2="227.244" gradientUnits="userSpaceOnUse">
<stop stop-color="#3D3D3D"/>
<stop offset="1" stop-color="#3D3D3D" stop-opacity="0"/>
</linearGradient>
<linearGradient id="paint8_linear_639_8343" x1="176.216" y1="80.2795" x2="176.499" y2="227.244" gradientUnits="userSpaceOnUse">
<stop stop-color="#3D3D3D"/>
<stop offset="1" stop-color="#3D3D3D" stop-opacity="0"/>
</linearGradient>
<linearGradient id="paint9_linear_639_8343" x1="176.216" y1="80.2795" x2="176.499" y2="227.244" gradientUnits="userSpaceOnUse">
<stop stop-color="#3D3D3D"/>
<stop offset="1" stop-color="#3D3D3D" stop-opacity="0"/>
</linearGradient>
<linearGradient id="paint10_linear_639_8343" x1="176.216" y1="80.2795" x2="176.499" y2="227.244" gradientUnits="userSpaceOnUse">
<stop stop-color="#3D3D3D"/>
<stop offset="1" stop-color="#3D3D3D" stop-opacity="0"/>
</linearGradient>
<linearGradient id="paint11_linear_639_8343" x1="176.216" y1="80.2795" x2="176.499" y2="227.244" gradientUnits="userSpaceOnUse">
<stop stop-color="#3D3D3D"/>
<stop offset="1" stop-color="#3D3D3D" stop-opacity="0"/>
</linearGradient>
<linearGradient id="paint12_linear_639_8343" x1="176.216" y1="80.2795" x2="176.499" y2="227.244" gradientUnits="userSpaceOnUse">
<stop stop-color="#3D3D3D"/>
<stop offset="1" stop-color="#3D3D3D" stop-opacity="0"/>
</linearGradient>
<linearGradient id="paint13_linear_639_8343" x1="176.216" y1="80.2795" x2="176.499" y2="227.244" gradientUnits="userSpaceOnUse">
<stop stop-color="#3D3D3D"/>
<stop offset="1" stop-color="#3D3D3D" stop-opacity="0"/>
</linearGradient>
<linearGradient id="paint14_linear_639_8343" x1="176.216" y1="80.2795" x2="176.499" y2="227.244" gradientUnits="userSpaceOnUse">
<stop stop-color="#3D3D3D"/>
<stop offset="1" stop-color="#3D3D3D" stop-opacity="0"/>
</linearGradient>
</defs>
</svg>
